<?xml version="1.0" encoding="UTF-8" standalone="no"?>
<!-- Created with Inkscape (http://www.inkscape.org/) -->

<svg
   xmlns:dc="http://purl.org/dc/elements/1.1/"
   xmlns:cc="http://creativecommons.org/ns#"
   xmlns:rdf="http://www.w3.org/1999/02/22-rdf-syntax-ns#"
   xmlns:svg="http://www.w3.org/2000/svg"
   xmlns="http://www.w3.org/2000/svg"
   version="1.1"
   width="100%"
   height="100%"
   viewBox="0 0 240 100"
   id="Ebene_1"
   xml:space="preserve"><metadata
   id="metadata3302"><rdf:RDF><cc:Work
       rdf:about=""><dc:format>image/svg+xml</dc:format><dc:type
         rdf:resource="http://purl.org/dc/dcmitype/StillImage" /><dc:title></dc:title></cc:Work></rdf:RDF></metadata><defs
   id="defs3300">
	
	
	
	
	
	
	
	
	
	
	
	
	
	
	
	
	
	
	
	
	
	
	
	
	
	
	
	
	
</defs>
<style
   type="text/css"
   id="style3236" />

<g
   transform="matrix(1.0594997,0,0,1.0594997,-30.064359,-114.50534)"
   id="g3028"><path
     d="m 95.221,155.906 c 7.829,0 14.171,-6.35 14.171,-14.176 0,-7.829 -6.342,-14.171 -14.171,-14.171 -7.823,0 -14.176,6.342 -14.176,14.171 0,7.827 6.353,14.176 14.176,14.176 z"
     id="path3"
     style="fill:#ffffff" /><g
     id="g5"><path
       d="m 33.349,170.434 5.796,0.017 c 2.752,0 4.566,1.464 4.566,3.639 0,1.855 -1.543,3.389 -3.469,3.425 0.313,0.195 0.448,0.301 0.65,0.518 0.895,0.891 3.738,4.812 3.738,4.812 h -3.694 c -0.604,-0.818 -0.849,-1.157 -1.455,-2.032 -1.544,-2.228 -2.037,-2.818 -2.575,-3.032 -0.155,-0.052 -0.246,-0.088 -0.492,-0.105 v 5.169 h -3.066 v -12.411 z m 3.087,2.016 -0.021,3.351 h 1.053 c 1.342,0 1.923,-0.106 2.349,-0.41 0.381,-0.286 0.604,-0.729 0.604,-1.248 0,-0.766 -0.38,-1.283 -1.118,-1.515 -0.36,-0.107 -1.009,-0.178 -1.771,-0.178 h -1.096 z"
       id="path7"
       style="fill:#002942" /><path
       d="m 55.215,170.45 h 8.862 l -0.403,2.035 h -5.326 v 2.87 h 4.454 v 2.033 h -4.409 v 3.315 h 5.886 v 2.139 H 55.216 V 170.45 z"
       id="path9"
       style="fill:#002942" /><path
       d="m 75.581,170.45 h 3.179 v 9.986 c 0,1.605 -0.067,1.927 -0.225,2.426 -0.447,1.515 -2.216,2.477 -3.626,2.905 l -1.455,-1.285 c 0.807,-0.391 1.522,-0.999 1.814,-1.495 0.247,-0.446 0.313,-0.946 0.313,-2.283 V 170.45 z"
       id="path11"
       style="fill:#002942" /><path
       d="m 100.852,171.327 -1.478,1.783 c -1.41,-0.678 -2.462,-0.944 -3.626,-0.944 -1.276,0 -2.171,0.587 -2.171,1.425 0,0.643 0.425,0.961 1.723,1.249 l 1.882,0.41 c 2.55,0.551 3.938,1.852 3.938,3.688 0,2.516 -2.552,4.173 -6.424,4.173 -1.768,0 -3.737,-0.408 -5.303,-1.123 l 1.163,-1.943 c 1.456,0.607 2.709,0.998 4.275,0.998 1.792,0 2.731,-0.587 2.731,-1.692 0,-0.803 -0.649,-1.318 -2.037,-1.604 L 93.8,177.37 c -1.544,-0.339 -2.508,-0.821 -3.066,-1.569 -0.426,-0.551 -0.65,-1.194 -0.65,-1.89 0,-2.262 2.284,-3.832 5.574,-3.832 1.903,0 3.827,0.463 5.194,1.248 z"
       id="path13"
       style="fill:#002942" /><path
       d="m 112.422,170.45 h 8.863 l -0.403,2.035 h -5.327 v 2.87 h 4.454 v 2.033 h -4.41 v 3.315 h 5.887 v 2.139 h -9.064 V 170.45 z"
       id="path15"
       style="fill:#002942" /><path
       d="m 132.542,170.417 h 4.096 c 2.64,0 3.447,0.214 4.32,0.605 1.455,0.642 2.239,1.783 2.239,3.211 0,1.64 -0.984,2.994 -2.687,3.637 -0.715,0.268 -1.387,0.407 -3.111,0.407 h -1.723 v 4.566 h -3.134 v -12.426 z m 3.134,2.016 v 3.814 h 1.632 c 1.278,0 1.658,-0.126 2.081,-0.642 0.271,-0.338 0.382,-0.732 0.382,-1.319 0,-1.157 -0.783,-1.854 -2.103,-1.854 h -1.992 z"
       id="path17"
       style="fill:#002942" /><path
       d="m 154.455,170.45 h 3.199 v 10.324 h 5.575 l -0.562,2.068 h -8.212 V 170.45 z"
       id="path19"
       style="fill:#002942" /><path
       d="m 177.619,170.417 h 3.379 l 4.9,12.426 h -3.354 l -1.099,-2.942 h -4.567 l -1.095,2.942 h -3.268 l 5.104,-12.426 z m 0.022,7.417 h 3.043 l -1.477,-4.689 c 0,0 -1.23,3.868 -1.566,4.689 z"
       id="path21"
       style="fill:#002942" /><path
       d="m 196.081,170.45 h 3.471 l 2.977,4.958 c 0.783,1.32 1.386,2.623 1.701,3.514 -0.111,-0.962 -0.225,-2.551 -0.247,-3.407 l -0.068,-5.064 h 2.978 v 12.393 h -3.267 l -2.666,-4.742 c -0.849,-1.552 -1.812,-3.297 -2.1,-4.065 0.111,1.018 0.134,2.48 0.154,3.514 l 0.092,5.294 h -3.024 V 170.45 z"
       id="path23"
       style="fill:#002942" /><path
       d="m 218.913,170.45 h 8.861 l -0.401,2.035 h -5.329 v 2.87 h 4.452 v 2.033 h -4.406 v 3.315 h 5.887 v 2.139 h -9.063 V 170.45 z"
       id="path25"
       style="fill:#002942" /><path
       d="m 239.1,170.45 h 3.467 l 2.977,4.958 c 0.783,1.32 1.388,2.623 1.704,3.514 -0.113,-0.962 -0.226,-2.551 -0.25,-3.407 l -0.066,-5.064 h 2.979 v 12.393 h -3.269 l -2.664,-4.742 c -0.849,-1.552 -1.813,-3.297 -2.101,-4.065 0.109,1.018 0.131,2.48 0.154,3.514 l 0.091,5.294 H 239.1 V 170.45 z"
       id="path27"
       style="fill:#002942" /></g><path
     d="m 82.015,146.836 c -0.618,-1.59 -0.969,-3.313 -0.969,-5.121 0,-1.729 0.325,-3.38 0.893,-4.912 H 33.463 v 0.004 c -0.024,0 -0.047,-0.004 -0.072,-0.004 -2.769,0 -5.015,2.247 -5.015,5.018 0,2.77 2.245,5.016 5.015,5.016 0.025,0 0.048,-0.003 0.072,-0.004 v 0.004 h 48.552 z"
     id="path29"
     style="fill:#ebbd00" /><ellipse
     cx="95.220001"
     cy="141.73199"
     rx="5.9330001"
     ry="5.8990002"
     id="ellipse31"
     style="fill:#e30613" /><path
     d="m 249.883,136.775 c -0.025,0 -0.048,0.003 -0.072,0.003 v -0.003 H 111.498 c -2.141,-6.946 -8.617,-12.008 -16.256,-12.008 -9.378,0 -17.007,7.629 -17.007,17.008 0,9.378 7.629,17.008 17.007,17.008 4.543,0 8.814,-1.77 12.026,-4.982 1.988,-1.987 3.419,-4.381 4.225,-6.992 h 138.318 v -0.004 c 0.025,0 0.047,0.004 0.072,0.004 2.77,0 5.015,-2.247 5.015,-5.018 -0.001,-2.77 -2.246,-5.016 -5.015,-5.016 z m -146.564,13.077 c -2.158,2.158 -5.026,3.347 -8.078,3.347 -6.298,0 -11.422,-5.125 -11.422,-11.423 0,-6.299 5.124,-11.423 11.422,-11.423 6.299,0 11.423,5.124 11.423,11.423 0.001,3.05 -1.187,5.918 -3.345,8.076 z"
     id="path33"
     style="fill:#002942" /></g></svg>