<?xml version="1.0" encoding="UTF-8" standalone="no"?>
<!-- Created with Inkscape (http://www.inkscape.org/) -->

<svg
   xmlns:dc="http://purl.org/dc/elements/1.1/"
   xmlns:cc="http://creativecommons.org/ns#"
   xmlns:rdf="http://www.w3.org/1999/02/22-rdf-syntax-ns#"
   xmlns:svg="http://www.w3.org/2000/svg"
   xmlns="http://www.w3.org/2000/svg"
   version="1.1"
   width="100%"
   height="100%"
   viewBox="0 0 100 100"
   id="Ebene_1"
   xml:space="preserve"><metadata
   id="metadata13"><rdf:RDF><cc:Work
       rdf:about=""><dc:format>image/svg+xml</dc:format><dc:type
         rdf:resource="http://purl.org/dc/dcmitype/StillImage" /><dc:title></dc:title></cc:Work></rdf:RDF></metadata><defs
   id="defs11" />

<g
   id="g2985"
   style="fill:none;stroke:#000d2a;stroke-width:4.19999981;stroke-miterlimit:4;stroke-opacity:1;stroke-dasharray:none"><path
     d="M 50,7 C 33.381,7 19.9,20.481 19.9,37.1 19.9,59.675 50,93 50,93 50,93 80.1,59.675 80.1,37.1 80.1,20.481 66.619,7 50,7 z"
     id="path2987"
     style="fill:none;stroke:#000d2a;stroke-width:4.19999981;stroke-miterlimit:4;stroke-opacity:1;stroke-dasharray:none" /><path
     d="m 52.039276,22.482 10.941086,28 H 58.863107 L 55.804194,42.051304 H 43.962249 L 40.824595,50.482 h -3.804957 l 10.902383,-28 h 4.117255 z m 2.587798,16.43165 -4.667113,-13.059105 h -0.07874 L 45.136704,38.91365 h 9.490372 z"
     id="path2989"
     style="fill:none;stroke:#000d2a;stroke-width:4.19999981;stroke-miterlimit:4;stroke-opacity:1;stroke-dasharray:none" /></g><g
   id="_x33_2x32"><path
   d="M 50,7 C 33.381,7 19.9,20.481 19.9,37.1 19.9,59.675 50,93 50,93 50,93 80.1,59.675 80.1,37.1 80.1,20.481 66.619,7 50,7 z"
   id="path4"
   style="fill:#fcfcfc;fill-opacity:1" /><g
   id="text2988"
   style="font-size:56.26373672px;font-style:normal;font-variant:normal;font-weight:bold;font-stretch:normal;text-align:start;line-height:125%;letter-spacing:0px;word-spacing:0px;writing-mode:lr-tb;text-anchor:start;fill:#000d2a;fill-opacity:1;stroke:none;font-family:Roboto;-inkscape-font-specification:Roboto Bold"><path
     d="m 36.999999,61.016949 0,-40.000001 13.104395,0 c 4.706938,4e-5 8.379096,0.920369 11.016484,2.760989 2.637332,1.840695 3.956012,4.574209 3.956044,8.20055 -3.2e-5,1.831529 -0.476222,3.470721 -1.428572,4.917582 -0.95241,1.44691 -2.34435,2.536652 -4.175824,3.269231 2.490814,0.457896 4.368102,1.538481 5.631868,3.241758 1.263704,1.703313 1.895571,3.690491 1.895605,5.961539 -3.4e-5,3.827847 -1.263769,6.726195 -3.791209,8.695055 -2.5275,1.968865 -6.108082,2.953297 -10.741758,2.953297 z m 8.021978,-17.692308 0,11.538461 7.445055,0 c 2.12452,7e-6 3.745398,-0.462447 4.862637,-1.387362 1.117191,-0.9249 1.675799,-2.293946 1.675824,-4.107143 -2.5e-5,-1.941378 -0.549475,-3.434051 -1.648351,-4.478022 -1.098925,-1.043939 -2.756432,-1.565916 -4.972528,-1.565934 z m 0,-5.549451 5.357143,0 c 2.142837,2.4e-5 3.791187,-0.439536 4.945054,-1.318681 1.153823,-0.879096 1.730746,-2.161146 1.73077,-3.846154 -2.4e-5,-1.849787 -0.581525,-3.214254 -1.744506,-4.093407 -1.163024,-0.879087 -2.898371,-1.318647 -5.206044,-1.318681 l -5.082417,0 z"
     id="path2990" /></g>
</g></svg>