<?xml version="1.0" encoding="UTF-8" standalone="no"?>
<!-- Created with Inkscape (http://www.inkscape.org/) -->

<svg
   xmlns:dc="http://purl.org/dc/elements/1.1/"
   xmlns:cc="http://creativecommons.org/ns#"
   xmlns:rdf="http://www.w3.org/1999/02/22-rdf-syntax-ns#"
   xmlns:svg="http://www.w3.org/2000/svg"
   xmlns="http://www.w3.org/2000/svg"
   version="1.1"
   width="100%"
   height="100%"
   viewBox="0 0 100 100"
   id="Ebene_1"
   xml:space="preserve"><metadata
   id="metadata10"><rdf:RDF><cc:Work
       rdf:about=""><dc:format>image/svg+xml</dc:format><dc:type
         rdf:resource="http://purl.org/dc/dcmitype/StillImage" /><dc:title></dc:title></cc:Work></rdf:RDF></metadata><defs
   id="defs8">
	
</defs>
<path
   d="M 50,10.1875 C 28.005813,10.1875 10.1875,28.005813 10.1875,50 10.1875,71.994187 28.005813,89.8125 50,89.8125 71.994187,89.8125 89.8125,71.994187 89.8125,50 89.8125,28.005813 71.994187,10.1875 50,10.1875 z M 45.75,17.125 46.8125,34 53.1875,34 54.25,17.125 c 14.896871,1.909071 26.702561,13.701057 28.625,28.59375 L 66,46.8125 l 0,6.375 16.875,1.09375 C 80.952561,69.173943 69.146871,80.965929 54.25,82.875 L 53.1875,66 46.8125,66 45.75,82.875 C 30.853129,80.965929 19.047439,69.173943 17.125,54.28125 L 34,53.1875 34,46.8125 17.125,45.71875 C 19.047439,30.826057 30.853129,19.034071 45.75,17.125 z"
   id="path3000"
   style="color:#000000;fill:#666e7f;fill-opacity:1;fill-rule:nonzero;stroke:none;stroke-width:2;marker:none;visibility:visible;display:inline;overflow:visible;enable-background:accumulate" />
</svg>