<svg version="1.1" id="Layer_1" xmlns="http://www.w3.org/2000/svg" xmlns:xlink="http://www.w3.org/1999/xlink" x="0px" y="0px"
	 width="100%" viewBox="0 0 144 144" enable-background="new 0 0 144 144" xml:space="preserve">
<path fill="#FEFEFE" opacity="1.000000" stroke="none" 
	d="
M78.000000,145.000000 
	C52.022148,145.000000 26.544300,145.000000 1.033225,145.000000 
	C1.033225,97.063866 1.033225,49.127697 1.033225,1.095765 
	C48.894295,1.095765 96.788849,1.095765 144.841705,1.095765 
	C144.841705,48.999584 144.841705,96.999741 144.841705,145.000000 
	C122.794746,145.000000 100.647377,145.000000 78.000000,145.000000 
M75.278061,6.498656 
	C72.474731,6.700925 69.666733,6.852981 66.868774,7.112995 
	C24.567377,11.044053 -3.441131,53.627945 10.031108,93.781769 
	C18.995527,120.500092 38.029690,135.932739 65.604538,139.408585 
	C89.969292,142.479797 110.451172,133.707840 125.983482,114.330315 
	C149.873215,84.526382 142.590652,39.162159 110.615540,18.044132 
	C100.140480,11.125859 88.577713,7.597855 75.278061,6.498656 
z"/>
<path fill="#122E43" opacity="1.000000" stroke="none" 
	d="
M75.726730,6.501297 
	C88.577713,7.597855 100.140480,11.125859 110.615540,18.044132 
	C142.590652,39.162159 149.873215,84.526382 125.983482,114.330315 
	C110.451172,133.707840 89.969292,142.479797 65.604538,139.408585 
	C38.029690,135.932739 18.995527,120.500092 10.031108,93.781769 
	C-3.441131,53.627945 24.567377,11.044053 66.868774,7.112995 
	C69.666733,6.852981 72.474731,6.700925 75.726730,6.501297 
M101.904160,38.560059 
	C101.508781,38.255466 101.116821,37.946316 100.717529,37.646942 
	C83.704880,24.891575 60.856628,25.271708 44.810860,38.576191 
	C28.600264,52.017338 23.815199,74.500885 33.169388,93.275826 
	C42.443283,111.889618 63.439793,121.875824 83.898697,116.765175 
	C100.728951,112.560966 112.096741,101.836494 116.575378,85.034081 
	C121.369591,67.047676 116.301308,51.551353 101.904160,38.560059 
z"/>
<path fill="#FCFBFC" opacity="1.000000" stroke="none" 
	d="
M102.181412,38.786152 
	C116.301308,51.551353 121.369591,67.047676 116.575378,85.034081 
	C112.096741,101.836494 100.728951,112.560966 83.898697,116.765175 
	C63.439793,121.875824 42.443283,111.889618 33.169388,93.275826 
	C23.815199,74.500885 28.600264,52.017338 44.810860,38.576191 
	C60.856628,25.271708 83.704880,24.891575 100.717529,37.646942 
	C101.116821,37.946316 101.508781,38.255466 102.181412,38.786152 
M96.209351,77.509003 
	C96.314232,76.348495 96.480980,75.189751 96.514221,74.027191 
	C96.783684,64.603249 91.289833,55.858101 82.762741,52.092293 
	C73.872208,48.165977 63.691727,49.978680 56.845806,56.706974 
	C49.977901,63.456867 47.956585,73.662567 51.733021,82.521698 
	C55.605053,91.605095 64.333641,97.014824 74.421021,96.583069 
	C84.904503,96.134354 92.331596,89.857094 96.209351,77.509003 
z"/>
<path fill="#E30C1A" opacity="1.000000" stroke="none" 
	d="
M96.132111,77.903732 
	C92.331596,89.857094 84.904503,96.134354 74.421021,96.583069 
	C64.333641,97.014824 55.605053,91.605095 51.733021,82.521698 
	C47.956585,73.662567 49.977901,63.456867 56.845806,56.706974 
	C63.691727,49.978680 73.872208,48.165977 82.762741,52.092293 
	C91.289833,55.858101 96.783684,64.603249 96.514221,74.027191 
	C96.480980,75.189751 96.314232,76.348495 96.132111,77.903732 
z"/>
</svg>