<?xml version="1.0" encoding="UTF-8" standalone="no"?>
<!-- Created with Inkscape (http://www.inkscape.org/) -->

<svg
   xmlns:dc="http://purl.org/dc/elements/1.1/"
   xmlns:cc="http://creativecommons.org/ns#"
   xmlns:rdf="http://www.w3.org/1999/02/22-rdf-syntax-ns#"
   xmlns:svg="http://www.w3.org/2000/svg"
   xmlns="http://www.w3.org/2000/svg"
   version="1.1"
   width="100%"
   height="100%"
   viewBox="0 0 100 100"
   id="Ebene_1"
   xml:space="preserve"><metadata
   id="metadata13"><rdf:RDF><cc:Work
       rdf:about=""><dc:format>image/svg+xml</dc:format><dc:type
         rdf:resource="http://purl.org/dc/dcmitype/StillImage" /><dc:title></dc:title></cc:Work></rdf:RDF></metadata><defs
   id="defs11" />

<g
   id="g2985"
   style="fill:none;stroke:#000d2a;stroke-width:4.19999981;stroke-miterlimit:4;stroke-opacity:1;stroke-dasharray:none"><path
     d="M 50,7 C 33.381,7 19.9,20.481 19.9,37.1 19.9,59.675 50,93 50,93 50,93 80.1,59.675 80.1,37.1 80.1,20.481 66.619,7 50,7 z"
     id="path2987"
     style="fill:none;stroke:#000d2a;stroke-width:4.19999981;stroke-miterlimit:4;stroke-opacity:1;stroke-dasharray:none" /><path
     d="m 52.039276,22.482 10.941086,28 H 58.863107 L 55.804194,42.051304 H 43.962249 L 40.824595,50.482 h -3.804957 l 10.902383,-28 h 4.117255 z m 2.587798,16.43165 -4.667113,-13.059105 h -0.07874 L 45.136704,38.91365 h 9.490372 z"
     id="path2989"
     style="fill:none;stroke:#000d2a;stroke-width:4.19999981;stroke-miterlimit:4;stroke-opacity:1;stroke-dasharray:none" /></g><g
   id="_x33_2x32"><path
     d="M 50,7 C 33.381,7 19.9,20.481 19.9,37.1 19.9,59.675 50,93 50,93 50,93 80.1,59.675 80.1,37.1 80.1,20.481 66.619,7 50,7 z"
     id="path4"
     style="fill:#fcfcfc;fill-opacity:1" /><g
     id="text2988"
     style="font-size:56.26373672px;font-style:normal;font-variant:normal;font-weight:bold;font-stretch:normal;text-align:start;line-height:125%;letter-spacing:0px;word-spacing:0px;writing-mode:lr-tb;text-anchor:start;fill:#000d2a;fill-opacity:1;stroke:none;font-family:Roboto;-inkscape-font-specification:Roboto Bold"><path
       d="m 56.469781,52.390575 -12.967033,0 -2.692308,8.626374 -8.379121,0 13.489011,-40.000001 8.214286,0 13.434066,40.000001 -8.379121,0 z m -10.989011,-6.291209 9.038461,0 -4.423077,-14.093407 -0.164835,0 z"
       id="path3761" /></g></g></svg>